<svg xmlns="http://www.w3.org/2000/svg" width="920" height="540" viewBox="0 0 920 540" role="img" aria-label="Denmark wind share and electricity carbon intensity from 2010 to 2024">
<rect width="100%" height="100%" fill="#ffffff"/>
<style>text{font-family:Segoe UI,Arial,sans-serif;fill:#172026}.small{font-size:13px;fill:#52606d}.axis{stroke:#52606d;stroke-width:1}.grid{stroke:#d7dde3;stroke-width:1}.wind{fill:none;stroke:#0f6d7a;stroke-width:3}.carbon{fill:none;stroke:#b44a2d;stroke-width:3}.dotw{fill:#0f6d7a}.dotc{fill:#b44a2d}</style>
<text x="30" y="34" font-size="22" font-weight="700">Denmark: wind share rose while grid carbon intensity fell</text>
<text x="30" y="58" class="small">Annual electricity data, 2010-2024</text>
<line x1="92" y1="238" x2="888" y2="238" class="axis"/>
<line x1="92" y1="88" x2="92" y2="238" class="axis"/>
<line x1="92" y1="472" x2="888" y2="472" class="axis"/>
<line x1="92" y1="322" x2="92" y2="472" class="axis"/>
<text x="30" y="90" font-size="15" font-weight="700" fill="#0f6d7a">Wind share of electricity (%)</text>
<text x="30" y="324" font-size="15" font-weight="700" fill="#b44a2d">Carbon intensity (gCO2/kWh)</text>
<line x1="92" y1="238.0" x2="888" y2="238.0" class="grid"/>
<text x="80" y="242.0" text-anchor="end" class="small">0</text>
<line x1="92" y1="191.8" x2="888" y2="191.8" class="grid"/>
<text x="80" y="195.8" text-anchor="end" class="small">20</text>
<line x1="92" y1="145.7" x2="888" y2="145.7" class="grid"/>
<text x="80" y="149.7" text-anchor="end" class="small">40</text>
<line x1="92" y1="99.5" x2="888" y2="99.5" class="grid"/>
<text x="80" y="103.5" text-anchor="end" class="small">60</text>
<line x1="92" y1="472.0" x2="888" y2="472.0" class="grid"/>
<text x="80" y="476.0" text-anchor="end" class="small">0</text>
<line x1="92" y1="422.0" x2="888" y2="422.0" class="grid"/>
<text x="80" y="426.0" text-anchor="end" class="small">200</text>
<line x1="92" y1="372.0" x2="888" y2="372.0" class="grid"/>
<text x="80" y="376.0" text-anchor="end" class="small">400</text>
<line x1="92" y1="322.0" x2="888" y2="322.0" class="grid"/>
<text x="80" y="326.0" text-anchor="end" class="small">600</text>
<line x1="92.0" y1="238" x2="92.0" y2="244" class="axis"/>
<line x1="92.0" y1="472" x2="92.0" y2="478" class="axis"/>
<text x="92.0" y="500" text-anchor="middle" class="small">2010</text>
<line x1="319.4" y1="238" x2="319.4" y2="244" class="axis"/>
<line x1="319.4" y1="472" x2="319.4" y2="478" class="axis"/>
<text x="319.4" y="500" text-anchor="middle" class="small">2014</text>
<line x1="546.9" y1="238" x2="546.9" y2="244" class="axis"/>
<line x1="546.9" y1="472" x2="546.9" y2="478" class="axis"/>
<text x="546.9" y="500" text-anchor="middle" class="small">2018</text>
<line x1="774.3" y1="238" x2="774.3" y2="244" class="axis"/>
<line x1="774.3" y1="472" x2="774.3" y2="478" class="axis"/>
<text x="774.3" y="500" text-anchor="middle" class="small">2022</text>
<line x1="888.0" y1="238" x2="888.0" y2="244" class="axis"/>
<line x1="888.0" y1="472" x2="888.0" y2="478" class="axis"/>
<text x="888.0" y="500" text-anchor="middle" class="small">2024</text>
<polyline points="92.0,191.5 148.9,173.8 205.7,160.5 262.6,163.9 319.4,143.8 376.3,124.7 433.1,141.0 490.0,127.6 546.9,131.8 603.7,111.1 660.6,106.1 717.4,125.5 774.3,113.2 831.1,106.0 888.0,103.7" class="wind"/>
<polyline points="92.0,336.9 148.9,350.4 205.7,364.2 262.6,353.9 319.4,371.8 376.3,393.6 433.1,381.8 490.0,401.3 546.9,397.8 603.7,420.9 660.6,424.8 717.4,416.3 774.3,421.1 831.1,434.0 888.0,439.1" class="carbon"/>
<circle cx="92.0" cy="191.5" r="3.3" class="dotw"/>
<circle cx="148.9" cy="173.8" r="3.3" class="dotw"/>
<circle cx="205.7" cy="160.5" r="3.3" class="dotw"/>
<circle cx="262.6" cy="163.9" r="3.3" class="dotw"/>
<circle cx="319.4" cy="143.8" r="3.3" class="dotw"/>
<circle cx="376.3" cy="124.7" r="3.3" class="dotw"/>
<circle cx="433.1" cy="141.0" r="3.3" class="dotw"/>
<circle cx="490.0" cy="127.6" r="3.3" class="dotw"/>
<circle cx="546.9" cy="131.8" r="3.3" class="dotw"/>
<circle cx="603.7" cy="111.1" r="3.3" class="dotw"/>
<circle cx="660.6" cy="106.1" r="3.3" class="dotw"/>
<circle cx="717.4" cy="125.5" r="3.3" class="dotw"/>
<circle cx="774.3" cy="113.2" r="3.3" class="dotw"/>
<circle cx="831.1" cy="106.0" r="3.3" class="dotw"/>
<circle cx="888.0" cy="103.7" r="3.3" class="dotw"/>
<circle cx="92.0" cy="336.9" r="3.3" class="dotc"/>
<circle cx="148.9" cy="350.4" r="3.3" class="dotc"/>
<circle cx="205.7" cy="364.2" r="3.3" class="dotc"/>
<circle cx="262.6" cy="353.9" r="3.3" class="dotc"/>
<circle cx="319.4" cy="371.8" r="3.3" class="dotc"/>
<circle cx="376.3" cy="393.6" r="3.3" class="dotc"/>
<circle cx="433.1" cy="381.8" r="3.3" class="dotc"/>
<circle cx="490.0" cy="401.3" r="3.3" class="dotc"/>
<circle cx="546.9" cy="397.8" r="3.3" class="dotc"/>
<circle cx="603.7" cy="420.9" r="3.3" class="dotc"/>
<circle cx="660.6" cy="424.8" r="3.3" class="dotc"/>
<circle cx="717.4" cy="416.3" r="3.3" class="dotc"/>
<circle cx="774.3" cy="421.1" r="3.3" class="dotc"/>
<circle cx="831.1" cy="434.0" r="3.3" class="dotc"/>
<circle cx="888.0" cy="439.1" r="3.3" class="dotc"/>
<text x="30" y="516" class="small">Source: Our World in Data Energy Data, based mainly on Ember Yearly Electricity Data; course subset accessed 21 June 2026.</text>
</svg>