<svg xmlns="http://www.w3.org/2000/svg" width="920" height="590" viewBox="0 0 920 590" role="img" aria-label="Denmark wind share and electricity carbon intensity from 2010 to 2024">
<rect width="100%" height="100%" fill="#ffffff"/>
<style>text{font-family:Segoe UI,Arial,sans-serif;fill:#172026}.small{font-size:13px;fill:#52606d}.axis{stroke:#52606d;stroke-width:1}.grid{stroke:#d7dde3;stroke-width:1}.wind{fill:none;stroke:#0f6d7a;stroke-width:3}.carbon{fill:none;stroke:#b44a2d;stroke-width:3}.dotw{fill:#0f6d7a}.dotc{fill:#b44a2d}</style>
<text x="30" y="34" font-size="22" font-weight="700">Denmark: wind share rose while grid carbon intensity fell</text>
<text x="30" y="60" class="small">Annual electricity data, 2010-2024</text>
<line x1="98" y1="258" x2="888" y2="258" class="axis"/>
<line x1="98" y1="108" x2="98" y2="258" class="axis"/>
<line x1="98" y1="512" x2="888" y2="512" class="axis"/>
<line x1="98" y1="362" x2="98" y2="512" class="axis"/>
<text x="98" y="90" font-size="15" font-weight="700" fill="#0f6d7a">Wind share of electricity (%)</text>
<text x="98" y="344" font-size="15" font-weight="700" fill="#b44a2d">Carbon intensity (gCO2/kWh)</text>
<line x1="98" y1="258.0" x2="888" y2="258.0" class="grid"/>
<text x="86" y="262.0" text-anchor="end" class="small">0</text>
<line x1="98" y1="211.8" x2="888" y2="211.8" class="grid"/>
<text x="86" y="215.8" text-anchor="end" class="small">20</text>
<line x1="98" y1="165.7" x2="888" y2="165.7" class="grid"/>
<text x="86" y="169.7" text-anchor="end" class="small">40</text>
<line x1="98" y1="119.5" x2="888" y2="119.5" class="grid"/>
<text x="86" y="123.5" text-anchor="end" class="small">60</text>
<line x1="98" y1="512.0" x2="888" y2="512.0" class="grid"/>
<text x="86" y="516.0" text-anchor="end" class="small">0</text>
<line x1="98" y1="462.0" x2="888" y2="462.0" class="grid"/>
<text x="86" y="466.0" text-anchor="end" class="small">200</text>
<line x1="98" y1="412.0" x2="888" y2="412.0" class="grid"/>
<text x="86" y="416.0" text-anchor="end" class="small">400</text>
<line x1="98" y1="362.0" x2="888" y2="362.0" class="grid"/>
<text x="86" y="366.0" text-anchor="end" class="small">600</text>
<line x1="98.0" y1="258" x2="98.0" y2="264" class="axis"/>
<line x1="98.0" y1="512" x2="98.0" y2="518" class="axis"/>
<text x="98.0" y="540" text-anchor="middle" class="small">2010</text>
<line x1="323.7" y1="258" x2="323.7" y2="264" class="axis"/>
<line x1="323.7" y1="512" x2="323.7" y2="518" class="axis"/>
<text x="323.7" y="540" text-anchor="middle" class="small">2014</text>
<line x1="549.4" y1="258" x2="549.4" y2="264" class="axis"/>
<line x1="549.4" y1="512" x2="549.4" y2="518" class="axis"/>
<text x="549.4" y="540" text-anchor="middle" class="small">2018</text>
<line x1="775.1" y1="258" x2="775.1" y2="264" class="axis"/>
<line x1="775.1" y1="512" x2="775.1" y2="518" class="axis"/>
<text x="775.1" y="540" text-anchor="middle" class="small">2022</text>
<line x1="888.0" y1="258" x2="888.0" y2="264" class="axis"/>
<line x1="888.0" y1="512" x2="888.0" y2="518" class="axis"/>
<text x="888.0" y="540" text-anchor="middle" class="small">2024</text>
<polyline points="98.0,211.5 154.4,193.8 210.9,180.5 267.3,183.9 323.7,163.8 380.1,144.7 436.6,161.0 493.0,147.6 549.4,151.8 605.9,131.1 662.3,126.1 718.7,145.5 775.1,133.2 831.6,126.0 888.0,123.7" class="wind"/>
<polyline points="98.0,376.9 154.4,390.4 210.9,404.2 267.3,393.9 323.7,411.8 380.1,433.6 436.6,421.8 493.0,441.3 549.4,437.8 605.9,460.9 662.3,464.8 718.7,456.3 775.1,461.1 831.6,474.0 888.0,479.1" class="carbon"/>
<circle cx="98.0" cy="211.5" r="3.3" class="dotw"/>
<circle cx="154.4" cy="193.8" r="3.3" class="dotw"/>
<circle cx="210.9" cy="180.5" r="3.3" class="dotw"/>
<circle cx="267.3" cy="183.9" r="3.3" class="dotw"/>
<circle cx="323.7" cy="163.8" r="3.3" class="dotw"/>
<circle cx="380.1" cy="144.7" r="3.3" class="dotw"/>
<circle cx="436.6" cy="161.0" r="3.3" class="dotw"/>
<circle cx="493.0" cy="147.6" r="3.3" class="dotw"/>
<circle cx="549.4" cy="151.8" r="3.3" class="dotw"/>
<circle cx="605.9" cy="131.1" r="3.3" class="dotw"/>
<circle cx="662.3" cy="126.1" r="3.3" class="dotw"/>
<circle cx="718.7" cy="145.5" r="3.3" class="dotw"/>
<circle cx="775.1" cy="133.2" r="3.3" class="dotw"/>
<circle cx="831.6" cy="126.0" r="3.3" class="dotw"/>
<circle cx="888.0" cy="123.7" r="3.3" class="dotw"/>
<circle cx="98.0" cy="376.9" r="3.3" class="dotc"/>
<circle cx="154.4" cy="390.4" r="3.3" class="dotc"/>
<circle cx="210.9" cy="404.2" r="3.3" class="dotc"/>
<circle cx="267.3" cy="393.9" r="3.3" class="dotc"/>
<circle cx="323.7" cy="411.8" r="3.3" class="dotc"/>
<circle cx="380.1" cy="433.6" r="3.3" class="dotc"/>
<circle cx="436.6" cy="421.8" r="3.3" class="dotc"/>
<circle cx="493.0" cy="441.3" r="3.3" class="dotc"/>
<circle cx="549.4" cy="437.8" r="3.3" class="dotc"/>
<circle cx="605.9" cy="460.9" r="3.3" class="dotc"/>
<circle cx="662.3" cy="464.8" r="3.3" class="dotc"/>
<circle cx="718.7" cy="456.3" r="3.3" class="dotc"/>
<circle cx="775.1" cy="461.1" r="3.3" class="dotc"/>
<circle cx="831.6" cy="474.0" r="3.3" class="dotc"/>
<circle cx="888.0" cy="479.1" r="3.3" class="dotc"/>
<text x="30" y="566" class="small">Source: Our World in Data Energy Data, based mainly on Ember Yearly Electricity Data; course subset accessed 21 June 2026.</text>
</svg>